<svg width="83" height="83" fill="none" xmlns="http://www.w3.org/2000/svg"><path d="M0 41.5C0 18.58 18.58 0 41.5 0S83 18.58 83 41.5 64.42 83 41.5 83 0 64.42 0 41.5Z" fill="#292E36"/><path d="M25.117 26.807a22.055 22.055 0 0 0-5.616 14.451c-.14 12.197 9.823 22.2 22 22.241 12.177.02 21.999-9.842 21.999-22 0-11.975-9.58-21.737-21.496-21.999-.06 0-.141 0-.201.04a.44.44 0 0 0-.161.101c-.04.04-.08.101-.121.161-.02.06-.04.121-.04.202v9.58" stroke="#fff" stroke-width="3.5" stroke-linecap="round" stroke-linejoin="round"/><path d="m38.924 44.076-9.057-12.942a.865.865 0 0 1-.161-.624.92.92 0 0 1 .262-.583.947.947 0 0 1 1.188-.1l12.941 9.056a3.711 3.711 0 0 1 1.49 2.395 3.728 3.728 0 0 1-.624 2.758 3.707 3.707 0 0 1-5.133.946 3.522 3.522 0 0 1-.906-.906Z" fill="#fff"/></svg>